<?xml version="1.0" encoding="UTF-8"?>
<svg width="102px" height="48px" viewBox="0 0 102 48" version="1.1" xmlns="http://www.w3.org/2000/svg" xmlns:xlink="http://www.w3.org/1999/xlink">
    <!-- Generator: Sketch 64 (93537) - https://sketch.com -->
    <title>ISCHiFiRecordClub</title>
    <desc>Created with Sketch.</desc>
    <g id="Mobile-/-Record-Club" stroke="none" stroke-width="1" fill="none" fill-rule="evenodd">
        <g id="Mobile-&gt;-Record-Club" transform="translate(-36.000000, -40.000000)" fill="#1E1E1E" fill-rule="nonzero">
            <path d="M40.112,58 L40.112,41.2 L37.088,41.2 L37.088,58 L40.112,58 Z M50.288,58.408 C54.392,58.408 57.176,56.128 57.176,53.008 C57.176,50.488 55.52,48.928 52.136,48.184 L49.232,47.536 C47.528,47.152 46.832,46.48 46.832,45.4 C46.832,44.128 48.104,43.288 50.072,43.288 C51.8,43.288 53.144,44.128 53.816,45.304 C53.912,45.448 54.008,45.616 54.08,45.808 L56.864,45.112 C56.792,44.896 56.696,44.704 56.6,44.488 C55.496,42.4 53.072,40.84 50.072,40.84 C46.424,40.84 43.832,42.88 43.832,45.688 C43.832,48.064 45.296,49.552 48.416,50.32 L51.056,50.944 C53.12,51.448 53.96,52.168 53.96,53.32 C53.96,54.832 52.592,55.888 50.384,55.888 C48.296,55.888 46.64,54.976 45.872,53.32 C45.752,53.08 45.68,52.888 45.608,52.648 L42.872,53.416 C42.944,53.632 43.016,53.848 43.112,54.04 C44.216,56.776 46.856,58.408 50.288,58.408 Z M67.592,58.36 C70.904,58.36 73.304,56.8 74.576,53.776 C74.696,53.416 74.84,53.08 74.936,52.672 L71.912,52.096 C71.84,52.408 71.744,52.696 71.624,52.984 C71.048,54.688 69.632,55.816 67.664,55.816 C64.688,55.816 62.936,53.344 62.936,49.624 C62.936,45.928 64.64,43.384 67.664,43.384 C69.632,43.384 70.928,44.392 71.648,46.192 C71.744,46.456 71.84,46.744 71.912,47.008 L75.056,46.432 C74.984,46.144 74.888,45.856 74.768,45.568 C73.616,42.592 70.976,40.84 67.616,40.84 C62.96,40.84 59.648,44.464 59.648,49.696 C59.648,54.88 62.888,58.36 67.592,58.36 Z M81.176,58 L81.176,50.488 L89.192,50.488 L89.192,58 L92.24,58 L92.24,41.2 L89.192,41.2 L89.192,47.992 L81.176,47.992 L81.176,41.2 L78.152,41.2 L78.152,58 L81.176,58 Z M98.984,44.464 L98.984,41.2 L95.984,41.2 L95.984,44.464 L98.984,44.464 Z M98.96,58 L98.96,46.36 L96.008,46.36 L96.008,58 L98.96,58 Z M105.728,58 L105.728,50.056 L112.592,50.056 L112.592,47.728 L105.728,47.728 L105.728,43.672 L115.16,43.672 L115.16,41.2 L102.704,41.2 L102.704,58 L105.728,58 Z M120.368,44.464 L120.368,41.2 L117.368,41.2 L117.368,44.464 L120.368,44.464 Z M120.344,58 L120.344,46.36 L117.392,46.36 L117.392,58 L120.344,58 Z M39.152,87 L39.152,78.744 L40.736,78.744 L44.216,87 L47.072,87 L43.112,78.408 C45.368,78 46.712,76.416 46.712,74.328 C46.712,71.808 45.056,70.2 41.792,70.2 L36.56,70.2 L36.56,87 L39.152,87 Z M41.408,76.896 L39.152,76.896 L39.152,72.144 L41.648,72.144 C43.208,72.144 44.072,72.84 44.072,74.304 L44.072,74.52 C44.072,76.032 43.208,76.896 41.408,76.896 Z M52.712,87.288 C54.68,87.288 56.048,85.968 56.48,83.616 L56.624,83.04 L54.512,82.92 C54.464,83.256 54.44,83.568 54.392,83.856 C54.152,85.008 53.6,85.56 52.736,85.56 C51.584,85.56 50.984,84.552 50.984,82.704 L50.984,81.192 L56.696,81.192 L56.696,80.232 C56.696,77.4 55.304,75.072 52.688,75.072 C50.168,75.072 48.512,77.16 48.512,80.232 L48.512,82.2 C48.512,85.224 50.192,87.288 52.712,87.288 Z M54.296,79.824 L50.984,79.824 L50.984,79.488 C50.984,77.736 51.536,76.728 52.664,76.728 C53.84,76.728 54.296,77.808 54.296,79.488 L54.296,79.824 Z M62.456,87.288 C64.52,87.288 65.888,85.896 66.272,83.448 C66.296,83.232 66.344,83.016 66.368,82.776 L64.016,82.536 C63.992,82.92 63.992,83.232 63.968,83.592 C63.776,84.936 63.248,85.56 62.432,85.56 C61.352,85.56 60.752,84.504 60.752,82.632 L60.752,79.752 C60.752,77.856 61.352,76.8 62.432,76.8 C63.248,76.8 63.728,77.4 63.944,78.72 L64.016,79.776 L66.392,79.512 L66.32,79.032 C66.008,76.584 64.592,75.072 62.456,75.072 C59.912,75.072 58.28,77.136 58.28,80.232 L58.28,82.2 C58.28,85.272 59.912,87.288 62.456,87.288 Z M72.128,87.288 C74.6,87.288 76.304,85.272 76.304,82.2 L76.304,80.232 C76.304,77.136 74.6,75.072 72.128,75.072 C69.632,75.072 67.928,77.136 67.928,80.232 L67.928,82.2 C67.928,85.272 69.632,87.288 72.128,87.288 Z M72.128,85.56 C71.048,85.56 70.424,84.528 70.424,82.608 L70.424,79.752 C70.424,77.808 71.048,76.824 72.128,76.824 C73.232,76.824 73.808,77.808 73.808,79.752 L73.808,82.608 C73.808,84.552 73.232,85.56 72.128,85.56 Z M80.768,87 L80.768,81.048 C80.768,78.96 82.232,77.856 84.008,77.976 L84.032,75.216 C82.568,75.36 81.44,76.248 80.672,78.576 L80.672,75.36 L78.368,75.36 L78.368,87 L80.768,87 Z M88.4,87.288 C89.6,87.288 90.584,86.4 91.136,84.984 L91.136,87 L93.488,87 L93.488,70.2 L91.088,70.2 L91.088,77.256 C90.56,75.912 89.624,75.072 88.472,75.072 C86.504,75.072 85.256,76.92 85.256,80.16 L85.256,82.2 C85.256,85.464 86.48,87.288 88.4,87.288 Z M89.36,85.512 C88.304,85.512 87.728,84.48 87.728,82.584 L87.728,79.848 C87.728,77.904 88.328,76.872 89.384,76.872 C90.488,76.872 91.112,78.048 91.112,80.088 L91.112,82.344 C91.112,84.36 90.464,85.512 89.36,85.512 Z M106.064,87.288 C108.896,87.288 110.72,85.464 111.176,82.2 L111.248,81.048 L108.728,80.76 C108.68,81.216 108.656,81.672 108.632,82.128 C108.32,84.168 107.504,85.2 106.088,85.2 C104.24,85.2 103.208,83.544 103.208,80.64 L103.208,76.608 C103.208,73.656 104.216,72 106.088,72 C107.48,72 108.368,73.032 108.632,75.048 L108.704,76.08 L111.296,75.744 C111.296,75.528 111.272,75.288 111.248,75.048 C110.744,71.736 108.92,69.912 106.064,69.912 C102.632,69.912 100.472,72.552 100.472,76.824 L100.472,80.472 C100.472,84.696 102.536,87.288 106.064,87.288 Z M115.952,87 L115.952,70.2 L113.552,70.2 L113.552,87 L115.952,87 Z M121.208,87.24 C122.384,87.24 123.344,86.496 123.944,84.96 L123.944,87 L126.296,87 L126.296,75.36 L123.896,75.36 L123.896,82.68 C123.896,84.432 123.296,85.416 122.216,85.416 C121.328,85.416 120.896,84.744 120.896,83.568 L120.896,75.36 L118.496,75.36 L118.496,83.736 C118.496,85.944 119.48,87.24 121.208,87.24 Z M133.88,87.288 C135.776,87.288 137.072,85.44 137.072,82.224 L137.072,80.184 C137.072,76.92 135.896,75.096 133.928,75.096 C132.776,75.096 131.792,75.912 131.24,77.304 L131.24,70.2 L128.84,70.2 L128.84,87 L131.168,87 L131.168,84.936 C131.696,86.376 132.656,87.288 133.88,87.288 Z M132.968,85.512 C131.864,85.512 131.216,84.336 131.216,82.296 L131.216,80.04 C131.216,78.024 131.864,76.872 132.968,76.872 C134.024,76.872 134.6,77.88 134.6,79.8 L134.6,82.536 C134.6,84.456 134,85.512 132.968,85.512 Z" id="ISCHiFiRecordClub"></path>
        </g>
    </g>
</svg>