<?xml version="1.0" encoding="UTF-8"?>
<svg width="126px" height="27px" viewBox="0 0 126 27" version="1.1" xmlns="http://www.w3.org/2000/svg" xmlns:xlink="http://www.w3.org/1999/xlink">
    <!-- Generator: Sketch 64 (93537) - https://sketch.com -->
    <title>Mobile_Menu_ISCHiFi_logo@1x</title>
    <desc>Created with Sketch.</desc>
    <g id="Mobile-/-iPhone-X" stroke="none" stroke-width="1" fill="none" fill-rule="evenodd">
        <g id="Mobile-/-Search-Results" transform="translate(-39.000000, -56.000000)" fill="#000000" fill-rule="nonzero">
            <path d="M43.668,82 L43.668,56.8 L39.132,56.8 L39.132,82 L43.668,82 Z M58.932,82.612 C65.088,82.612 69.264,79.192 69.264,74.512 C69.264,70.732 66.78,68.392 61.704,67.276 L57.348,66.304 C54.792,65.728 53.748,64.72 53.748,63.1 C53.748,61.192 55.656,59.932 58.608,59.932 C61.2,59.932 63.216,61.192 64.224,62.956 C64.368,63.172 64.512,63.424 64.62,63.712 L68.796,62.668 C68.688,62.344 68.544,62.056 68.4,61.732 C66.744,58.6 63.108,56.26 58.608,56.26 C53.136,56.26 49.248,59.32 49.248,63.532 C49.248,67.096 51.444,69.328 56.124,70.48 L60.084,71.416 C63.18,72.172 64.44,73.252 64.44,74.98 C64.44,77.248 62.388,78.832 59.076,78.832 C55.944,78.832 53.46,77.464 52.308,74.98 C52.128,74.62 52.02,74.332 51.912,73.972 L47.808,75.124 C47.916,75.448 48.024,75.772 48.168,76.06 C49.824,80.164 53.784,82.612 58.932,82.612 Z M84.888,82.54 C89.856,82.54 93.456,80.2 95.364,75.664 C95.544,75.124 95.76,74.62 95.904,74.008 L91.368,73.144 C91.26,73.612 91.116,74.044 90.936,74.476 C90.072,77.032 87.948,78.724 84.996,78.724 C80.532,78.724 77.904,75.016 77.904,69.436 C77.904,63.892 80.46,60.076 84.996,60.076 C87.948,60.076 89.892,61.588 90.972,64.288 C91.116,64.684 91.26,65.116 91.368,65.512 L96.084,64.648 C95.976,64.216 95.832,63.784 95.652,63.352 C93.924,58.888 89.964,56.26 84.924,56.26 C77.94,56.26 72.972,61.696 72.972,69.544 C72.972,77.32 77.832,82.54 84.888,82.54 Z M105.264,82 L105.264,70.732 L117.288,70.732 L117.288,82 L121.86,82 L121.86,56.8 L117.288,56.8 L117.288,66.988 L105.264,66.988 L105.264,56.8 L100.728,56.8 L100.728,82 L105.264,82 Z M131.976,61.696 L131.976,56.8 L127.476,56.8 L127.476,61.696 L131.976,61.696 Z M131.94,82 L131.94,64.54 L127.512,64.54 L127.512,82 L131.94,82 Z M142.092,82 L142.092,70.084 L152.388,70.084 L152.388,66.592 L142.092,66.592 L142.092,60.508 L156.24,60.508 L156.24,56.8 L137.556,56.8 L137.556,82 L142.092,82 Z M164.052,61.696 L164.052,56.8 L159.552,56.8 L159.552,61.696 L164.052,61.696 Z M164.016,82 L164.016,64.54 L159.588,64.54 L159.588,82 L164.016,82 Z" id="Mobile_Menu_ISCHiFi_logo"></path>
        </g>
    </g>
</svg>